<svg xmlns="http://www.w3.org/2000/svg" width="512" height="512" viewBox="0 0 512 512" fill="none"><path d="M504.745 258.362C504.745 276.185 510.179 291.222 506.712 308.018C495.907 360.364 469.122 406.869 431.682 442.205C431.307 442.559 429.123 441.201 428.746 441.553C427.498 442.717 426.238 443.869 424.967 445.008C424.481 445.444 425.8 447.589 425.31 448.021C380.183 487.84 320.913 512 256 512C202.981 512 153.726 495.882 112.868 468.279C44.7721 422.274 23.7241 348.78 23.7241 260.415C23.7241 212.358 36.9661 167.394 60.0001 128.973C61.3661 126.694 39.0421 120.024 40.4771 117.792C86.0071 46.938 165.522 0 256 0C380.068 0 483.522 88.258 507.003 205.415C510.281 221.767 504.745 241.044 504.745 258.362V258.362Z" fill="#325C64"></path><path d="M431.681 105.526V442.205C429.59 444.179 427.465 446.118 425.309 448.021H86.691C33.531 401.112 0 332.472 0 256C0 199.765 18.133 147.764 48.87 105.526H431.681Z" fill="#325C64"></path><path d="M460 390H54C48.477 390 44 385.523 44 380V70C44 64.477 48.477 60 54 60H460C465.523 60 470 64.477 470 70V380C470 385.523 465.523 390 460 390Z" fill="#F0F0F0"></path><path d="M64 390H40C34.477 390 30 385.523 30 380V70C30 64.477 34.477 60 40 60H64C58.477 60 54 64.477 54 70V380C54 385.523 58.477 390 64 390Z" fill="#173749"></path><path d="M470 70H184L173.936 62.638H84.064L74 70H53.883C48.425 70 44 65.575 44 60.117V36.84C44 27.54 51.54 20 60.84 20H460C465.523 20 470 24.477 470 30V70Z" fill="#173749"></path><path d="M54 30V70H30V30C30 24.477 34.477 20 40 20H64C58.477 20 54 24.477 54 30Z" fill="#173749"></path><path d="M184 70H74V50C74 44.477 78.477 40 84 40H174C179.523 40 184 44.477 184 50V70Z" fill="#325C64"></path><path d="M444 45C444 50.523 439.523 55 434 55C428.477 55 424 50.523 424 45C424 39.477 428.477 35 434 35C439.523 35 444 39.477 444 45ZM394 35C388.477 35 384 39.477 384 45C384 50.523 388.477 55 394 55C399.523 55 404 50.523 404 45C404 39.477 399.523 35 394 35ZM354 35C348.477 35 344 39.477 344 45C344 50.523 348.477 55 354 55C359.523 55 364 50.523 364 45C364 39.477 359.523 35 354 35Z" fill="#325C64"></path><path d="M459 98.755V301.245C459 309.946 451.952 317 443.257 317H100.743C92.0485 317 85 309.946 85 301.245V98.755C85 90.053 92.0485 83 100.743 83H443.257C451.952 83 459 90.054 459 98.755V98.755Z" fill="#325C64"></path><path d="M112 317H75.7719C67.0616 317 60 309.946 60 301.245V98.7549C60 90.0529 67.0616 83 75.7719 83H112C103.29 83 96.2281 90.0529 96.2281 98.7549V301.244C96.2281 309.946 103.29 317 112 317V317Z" fill="#325C64"></path><path d="M253 141.92C253 137.546 256.537 134 260.9 134H394.673C399.036 134 402.573 137.546 402.573 141.92C402.573 146.294 399.036 149.84 394.673 149.84H260.9C256.537 149.84 253 146.294 253 141.92ZM350.433 165.68H260.9C256.537 165.68 253 169.226 253 173.6C253 177.974 256.537 181.52 260.9 181.52H350.433C354.796 181.52 358.333 177.974 358.333 173.6C358.333 169.226 354.796 165.68 350.433 165.68ZM350.433 213.2H260.9C256.537 213.2 253 216.746 253 221.12C253 225.494 256.537 229.04 260.9 229.04H350.433C354.796 229.04 358.333 225.494 358.333 221.12C358.333 216.746 354.796 213.2 350.433 213.2ZM379.4 221.12C379.4 225.494 382.937 229.04 387.3 229.04H403.1C407.463 229.04 411 225.494 411 221.12C411 216.746 407.463 213.2 403.1 213.2H387.3C382.937 213.2 379.4 216.746 379.4 221.12ZM318.833 250.16H260.9C256.537 250.16 253 253.706 253 258.08C253 262.454 256.537 266 260.9 266H318.833C323.196 266 326.733 262.454 326.733 258.08C326.733 253.706 323.196 250.16 318.833 250.16V250.16ZM403.1 250.16H387.3C382.937 250.16 379.4 253.706 379.4 258.08C379.4 262.454 382.937 266 387.3 266H403.1C407.463 266 411 262.454 411 258.08C411 253.706 407.463 250.16 403.1 250.16V250.16Z" fill="white"></path><path d="M126.59 166.84V156.38C126.59 139.049 140.652 125 158 125C175.348 125 189.41 139.049 189.41 156.38V166.84C189.41 184.17 175.348 198.22 158 198.22C140.653 198.22 126.59 184.17 126.59 166.84ZM179.59 212.24H136.41C119.062 212.24 105 226.289 105 243.62V269.77C105 272.658 107.344 275 110.235 275H205.765C208.656 275 211 272.658 211 269.77V243.62C211 226.289 196.938 212.24 179.59 212.24V212.24Z" fill="white"></path><path d="M426.812 490.182L411.036 503.521L384.641 353.83H402.769L426.812 490.182ZM324.524 482.638L303.442 490.401L329.837 340.71L348.956 344.081L324.524 482.638Z" fill="#FFB52D"></path><path d="M485.442 490.401L444.419 475.295L411.036 503.521L394.441 409.408L377.847 503.521L344.465 475.295L303.442 490.401L329.837 340.71L394.442 352.102L459.047 340.71L485.442 490.401Z" fill="#FFC14F"></path><path d="M461.446 403.251C462.868 403.9 462.966 405.878 461.61 406.656C456.465 409.607 450.504 411.295 444.147 411.295H442.804C433.995 411.295 425.706 415.055 419.538 421.343C405.833 435.314 383.396 435.395 369.589 421.588C362.998 414.997 354.058 411.295 344.736 411.295C325.298 411.295 309.696 395.391 309.588 375.954C309.537 366.702 305.84 357.841 299.294 351.295C285.539 337.54 285.568 315.22 299.382 301.502C305.819 295.109 309.784 286.555 309.596 277.484C309.401 268.102 312.884 259.534 318.701 253.124C319.801 251.912 321.783 252.292 322.353 253.827C347.02 320.196 397.428 374.049 461.446 403.251V403.251Z" fill="#FFD993"></path><path d="M489.589 301.588C503.315 315.314 503.315 337.568 489.589 351.295C482.998 357.886 479.295 366.826 479.295 376.148C479.295 389.43 471.928 400.99 461.057 406.967C394.248 378.535 342 322.525 318.609 253.229C325.042 246.083 334.365 241.589 344.737 241.589C354.059 241.589 362.998 237.886 369.59 231.295C383.316 217.569 405.57 217.569 419.296 231.295C425.887 237.886 434.827 241.589 444.149 241.589C463.56 241.589 479.296 257.324 479.296 276.735C479.294 286.057 482.997 294.997 489.589 301.588V301.588Z" fill="#FFD993"></path><path d="M459.442 326.441C459.442 362.339 430.341 391.441 394.442 391.441C358.543 391.441 329.442 362.339 329.442 326.441C329.442 290.543 358.543 261.441 394.442 261.441C430.341 261.441 459.442 290.543 459.442 326.441Z" fill="#325C64"></path><path d="M423.888 362.198C424.512 365.837 420.693 368.612 417.425 366.894L396.515 355.901C395.217 355.219 393.667 355.219 392.369 355.901L371.459 366.894C368.191 368.612 364.372 365.837 364.996 362.198L368.989 338.914C369.237 337.469 368.758 335.995 367.708 334.971L350.792 318.482C348.148 315.905 349.607 311.415 353.261 310.884L368.864 308.617C370.399 308.394 371.921 309.043 372.849 310.286C385.548 327.3 401.653 341.623 420.155 352.243C421.567 353.054 422.557 354.436 422.832 356.042L423.888 362.198Z" fill="#FFD993"></path><path d="M421.176 334.972C420.126 335.995 419.647 337.47 419.895 338.915L422.903 356.453C401.28 344.975 382.695 328.533 368.666 308.647L376.639 307.488C378.09 307.277 379.344 306.366 379.993 305.051L390.448 283.867C392.082 280.556 396.803 280.556 398.437 283.867L408.892 305.051C409.541 306.366 410.795 307.277 412.246 307.488L435.624 310.885C439.278 311.416 440.737 315.906 438.093 318.483L421.176 334.972Z" fill="#FFD993"></path></svg>